<svg width="20" height="20" viewBox="0 0 20 20" fill="none" xmlns="http://www.w3.org/2000/svg">
<path d="M13.75 19.9038L6.25 17.2788L1.3025 19.1913C0.9825 19.3104 0.685417 19.2758 0.41125 19.0875C0.137083 18.8992 0 18.6346 0 18.2938V3.005C0 2.7825 0.0541668 2.57875 0.1625 2.39375C0.270833 2.21042 0.428333 2.0825 0.635 2.01L6.25 0.0962524L13.75 2.72125L18.6975 0.808752C19.0175 0.689585 19.3146 0.712086 19.5887 0.876253C19.8629 1.04042 20 1.285 20 1.61V17.0913C20 17.3304 19.9338 17.5379 19.8013 17.7138C19.6696 17.8904 19.4921 18.0146 19.2688 18.0863L13.75 19.9038ZM13.125 18.3788V3.75375L6.875 1.5725V16.1975L13.125 18.3788ZM14.375 18.3788L18.75 16.9375V2.125L14.375 3.755V18.3788ZM1.25 17.875L5.625 16.1975V1.5725L1.25 3.0625V17.875Z" fill="#fff"/>
</svg>
